<?xml version="1.0" encoding="UTF-8" standalone="no"?>
<!-- Created with Inkscape (http://www.inkscape.org/) -->

<svg
   xmlns:dc="http://purl.org/dc/elements/1.1/"
   xmlns:cc="http://creativecommons.org/ns#"
   xmlns:rdf="http://www.w3.org/1999/02/22-rdf-syntax-ns#"
   xmlns:svg="http://www.w3.org/2000/svg"
   xmlns="http://www.w3.org/2000/svg"
   xmlns:sodipodi="http://sodipodi.sourceforge.net/DTD/sodipodi-0.dtd"
   xmlns:inkscape="http://www.inkscape.org/namespaces/inkscape"
   width="765"
   height="765"
   id="svg2"
   version="1.1"
   inkscape:version="0.48.4 r9939"
   sodipodi:docname="logo2.svg">
  <defs
     id="defs4" />
  <sodipodi:namedview
     id="base"
     pagecolor="#ffffff"
     bordercolor="#666666"
     borderopacity="1.0"
     inkscape:pageopacity="0.0"
     inkscape:pageshadow="2"
     inkscape:zoom="0.22070707"
     inkscape:cx="1724.2471"
     inkscape:cy="734.31761"
     inkscape:document-units="mm"
     inkscape:current-layer="layer3"
     showgrid="false"
     inkscape:window-width="1456"
     inkscape:window-height="1030"
     inkscape:window-x="462"
     inkscape:window-y="0"
     inkscape:window-maximized="0"
     inkscape:snap-bbox="true"
     inkscape:bbox-nodes="true"
     inkscape:snap-bbox-edge-midpoints="false"
     inkscape:bbox-paths="false"
     inkscape:snap-bbox-midpoints="true"
     units="mm" />
  <metadata
     id="metadata7">
    <rdf:RDF>
      <cc:Work
         rdf:about="">
        <dc:format>image/svg+xml</dc:format>
        <dc:type
           rdf:resource="http://purl.org/dc/dcmitype/StillImage" />
        <dc:title />
      </cc:Work>
    </rdf:RDF>
  </metadata>
  <g
     inkscape:label="Page"
     inkscape:groupmode="layer"
     id="layer1"
     transform="translate(0,-287.3622)"
     style="display:inline" />
  <g
     inkscape:groupmode="layer"
     id="layer3"
     inkscape:label="Logo"
     style="display:inline"
     transform="translate(0,-225.00002)">
    <rect
       style="fill:#999999;fill-opacity:1;stroke:#b3b3b3;stroke-width:0.70866144;stroke-linecap:square;stroke-linejoin:round;stroke-miterlimit:4;stroke-opacity:1;stroke-dasharray:none;stroke-dashoffset:0;display:inline"
       id="rect3034-3-4"
       width="765"
       height="765"
       x="0.35433072"
       y="224.64566" />
    <path
       style="fill:#1a1a1a;fill-opacity:1;stroke:#b3b3b3;stroke-width:0.70866144;stroke-linecap:square;stroke-linejoin:round;stroke-miterlimit:4;stroke-opacity:1;stroke-dasharray:none;stroke-dashoffset:0;display:inline"
       d="m 370.83422,253.36439 c -189.9386,6.32876 -341.968696,162.30248 -341.968696,353.78125 0,52.23218 11.3156,101.80653 31.625,146.4375 l 61.749996,-35.65625 c -14.4852,-34.02922 -22.499996,-71.46332 -22.499996,-110.78125 0,-152.33103 120.310896,-276.54647 271.093696,-282.84375 l 0,-70.9375 z m 28.3438,0.1875 0,70.96875 c 148.7581,8.46012 266.7812,131.74878 266.7812,282.625 0,53.72298 -14.9818,103.92628 -40.9687,146.71875 l 61.4062,35.46875 c 32.0178,-53.22614 50.4375,-115.54873 50.4375,-182.1875 0,-190.01829 -149.7467,-345.05453 -337.6562,-353.59375 z m -264.5,489.9375 -61.406296,35.4375 c 60.430196,108.66366 176.407096,182.18756 309.562496,182.18756 118.6878,0 223.748,-58.4161 287.9688,-148.0626 l -61.75,-35.65621 c -51.6691,68.53781 -133.7744,112.84381 -226.2188,112.84381 -106.9213,0 -199.9873,-59.2713 -248.1562,-146.75006 z"
       id="path3036-4-3"
       inkscape:connector-curvature="0" />
    <path
       style="fill:#1a1a1a;fill-opacity:1;stroke:none;display:inline"
       d="m 382.85432,359.11441 c -136.984,0 -248.0312,111.04724 -248.0312,248.03125 0,136.98401 111.0472,248.03125 248.0312,248.03125 136.9841,0 248.0313,-111.04724 248.0313,-248.03125 0,-136.98401 -111.0472,-248.03125 -248.0313,-248.03125 z m 0,106.40625 c 46.0217,0 44.5175,38.93569 52.875,68.15625 29.679,7.95244 83.3126,28.85913 83.3126,54.78125 0,25.92213 -12.8604,26.75211 -68.0313,36.75 0.799,0.70777 80.7724,68.81993 73.0313,121.625 -94.551,1.90656 -14.2303,-3.1e-4 -108.7813,1.90625 -12.0114,-19.13361 -11.073,-54.62751 -32.4063,-60.34375 -22.4873,6.02544 -20.4262,41.21014 -32.4374,60.34375 -94.5511,-1.90656 -14.2303,3.1e-4 -108.7813,-1.90625 -7.7411,-52.80507 72.2321,-120.91723 73.0313,-121.625 8.0584,-12.00721 -68.6283,-5.36358 -68.0313,-36.75 0.5972,-31.38641 52.8981,-46.62335 83.3437,-54.78125 8.3579,-29.22056 6.8534,-68.15625 52.875,-68.15625 z"
       id="path3911-9-1"
       inkscape:connector-curvature="0" />
  </g>
</svg>
