<?xml version="1.0" encoding="UTF-8" standalone="no"?>
<!-- Created with Inkscape (http://www.inkscape.org/) -->

<svg
   xmlns:dc="http://purl.org/dc/elements/1.1/"
   xmlns:cc="http://creativecommons.org/ns#"
   xmlns:rdf="http://www.w3.org/1999/02/22-rdf-syntax-ns#"
   xmlns:svg="http://www.w3.org/2000/svg"
   xmlns="http://www.w3.org/2000/svg"
   xmlns:sodipodi="http://sodipodi.sourceforge.net/DTD/sodipodi-0.dtd"
   xmlns:inkscape="http://www.inkscape.org/namespaces/inkscape"
   width="765"
   height="990"
   id="svg2"
   version="1.1"
   inkscape:version="0.48.4 r9939"
   sodipodi:docname="logo.svg">
  <defs
     id="defs4" />
  <sodipodi:namedview
     id="base"
     pagecolor="#ffffff"
     bordercolor="#666666"
     borderopacity="1.0"
     inkscape:pageopacity="0.0"
     inkscape:pageshadow="2"
     inkscape:zoom="0.22070707"
     inkscape:cx="1690.5394"
     inkscape:cy="1234.6071"
     inkscape:document-units="mm"
     inkscape:current-layer="layer3"
     showgrid="false"
     inkscape:window-width="1456"
     inkscape:window-height="1030"
     inkscape:window-x="463"
     inkscape:window-y="0"
     inkscape:window-maximized="0"
     inkscape:snap-bbox="true"
     inkscape:bbox-nodes="true"
     inkscape:snap-bbox-edge-midpoints="false"
     inkscape:bbox-paths="false"
     inkscape:snap-bbox-midpoints="true" />
  <metadata
     id="metadata7">
    <rdf:RDF>
      <cc:Work
         rdf:about="">
        <dc:format>image/svg+xml</dc:format>
        <dc:type
           rdf:resource="http://purl.org/dc/dcmitype/StillImage" />
        <dc:title />
      </cc:Work>
    </rdf:RDF>
  </metadata>
  <g
     inkscape:label="Page"
     inkscape:groupmode="layer"
     id="layer1"
     transform="translate(0,-62.362183)">
    <rect
       style="fill:#999999;fill-opacity:1;stroke:#b3b3b3;stroke-width:0.70866144;stroke-linecap:square;stroke-linejoin:round;stroke-miterlimit:4;stroke-opacity:1;stroke-dasharray:none;stroke-dashoffset:0"
       id="rect3034"
       width="765"
       height="990"
       x="0.354332"
       y="62.007851" />
  </g>
  <g
     inkscape:groupmode="layer"
     id="layer3"
     inkscape:label="Logo"
     style="display:inline">
    <path
       style="fill:#1a1a1a;fill-opacity:1;stroke:#b3b3b3;stroke-width:0.70866144;stroke-linecap:square;stroke-linejoin:round;stroke-miterlimit:4;stroke-opacity:1;stroke-dasharray:none;stroke-dashoffset:0;display:inline"
       d="M 370.84375,140.875 C 180.9051,147.20376 28.875,303.17748 28.875,494.65625 c 0,52.23218 11.315624,101.80653 31.625,146.4375 L 122.25,605.4375 C 107.76479,571.40828 99.75,533.97418 99.75,494.65625 99.75,342.32522 220.06095,218.10978 370.84375,211.8125 l 0,-70.9375 z m 28.34375,0.1875 0,70.96875 c 148.75814,8.46012 266.78125,131.74878 266.78125,282.625 0,53.72298 -14.98182,103.92628 -40.96875,146.71875 l 61.40625,35.46875 c 32.01777,-53.22614 50.4375,-115.54873 50.4375,-182.1875 0,-190.01829 -149.74673,-345.05453 -337.65625,-353.59375 z M 134.6875,631 73.28125,666.4375 c 60.43017,108.66363 176.40701,182.1875 309.5625,182.1875 118.68772,0 223.74798,-58.4161 287.96875,-148.0625 l -61.75,-35.65625 C 557.39342,733.44401 475.28806,777.75 382.84375,777.75 275.92244,777.75 182.85645,718.47878 134.6875,631 z"
       id="path3036"
       inkscape:connector-curvature="0" />
    <path
       sodipodi:type="arc"
       style="fill:#1a1a1a;fill-opacity:1;stroke:none"
       id="path3911"
       sodipodi:cx="73.741135"
       sodipodi:cy="427.34503"
       sodipodi:rx="237.38585"
       sodipodi:ry="237.38585"
       d="m 311.12698,427.34503 a 237.38585,237.38585 0 1 1 -474.77169,0 237.38585,237.38585 0 1 1 474.77169,0 z"
       transform="matrix(1.0448453,0,0,1.0448453,305.80626,48.136218)" />
    <path
       id="path3777-6-6-2"
       style="fill:#b3b3b3;stroke:none;display:inline"
       d="m 331.8555,423.80289 c -33.77541,-9.53269 -93.00481,34.81811 -90.66622,63.139 4.75322,7.37209 15.20349,12.72433 22.41854,25.39648 30.17012,-26.0537 64.23972,-10.57506 60.34933,-7.12905 -0.77082,0.6826 -84.7661,73.2611 -77.2996,124.19343 91.19778,1.83895 0,0 91.19778,1.83895 11.58532,-18.45503 0.61515,-58.22461 44.99892,-58.22461 44.38395,0 33.4136,39.76958 44.99892,58.22461 91.19796,-1.83895 0,0 91.19796,-1.83895 7.46649,-50.93233 -76.52895,-123.51083 -77.29961,-124.19343 -3.89039,-3.44601 30.17905,-18.92465 60.34917,7.12905 7.21521,-12.67215 17.66531,-18.02439 22.41871,-25.39648 2.33841,-28.32089 -56.89081,-72.67169 -90.66639,-63.139 -8.06121,-28.1842 -6.60915,-65.75326 -50.99876,-65.75326 -44.38943,0 -42.93736,37.56906 -50.99875,65.75326 z"
       inkscape:connector-curvature="0"
       sodipodi:nodetypes="cccscccccsccccc" />
    <rect
       style="fill:#999999;fill-opacity:1;stroke:#b3b3b3;stroke-width:0.70866144;stroke-linecap:square;stroke-linejoin:round;stroke-miterlimit:4;stroke-opacity:1;stroke-dasharray:none;stroke-dashoffset:0"
       id="rect3034-3"
       width="765"
       height="990"
       x="870.06299"
       y="-0.35433236" />
    <path
       style="fill:#1a1a1a;fill-opacity:1;stroke:#b3b3b3;stroke-width:0.70866144;stroke-linecap:square;stroke-linejoin:round;stroke-miterlimit:4;stroke-opacity:1;stroke-dasharray:none;stroke-dashoffset:0;display:inline"
       d="m 1240.5524,140.87499 c -189.9386,6.32876 -341.96872,162.30248 -341.96872,353.78125 0,52.23218 11.3156,101.80653 31.625,146.4375 l 61.75,-35.65625 c -14.4852,-34.02922 -22.5,-71.46332 -22.5,-110.78125 0,-152.33103 120.31092,-276.54647 271.09372,-282.84375 l 0,-70.9375 z m 28.3438,0.1875 0,70.96875 c 148.7581,8.46012 266.7812,131.74878 266.7812,282.625 0,53.72298 -14.9818,103.92628 -40.9687,146.71875 l 61.4062,35.46875 c 32.0178,-53.22614 50.4375,-115.54873 50.4375,-182.1875 0,-190.01829 -149.7467,-345.05453 -337.6562,-353.59375 z m -264.5,489.9375 -61.40632,35.4375 c 60.43022,108.66362 176.40712,182.18752 309.56252,182.18752 118.6878,0 223.748,-58.4161 287.9688,-148.06252 l -61.75,-35.65625 c -51.6691,68.53776 -133.7744,112.84377 -226.2188,112.84377 -106.9213,0 -199.9873,-59.27124 -248.1562,-146.75002 z"
       id="path3036-4"
       inkscape:connector-curvature="0" />
    <path
       sodipodi:type="arc"
       style="fill:#1a1a1a;fill-opacity:1;stroke:none;display:inline"
       id="path3911-9"
       sodipodi:cx="73.741135"
       sodipodi:cy="427.34503"
       sodipodi:rx="237.38585"
       sodipodi:ry="237.38585"
       d="m 311.12698,427.34503 a 237.38585,237.38585 0 1 1 -474.77169,0 237.38585,237.38585 0 1 1 474.77169,0 z"
       transform="matrix(1.0448453,0,0,1.0448453,1175.515,48.136215)" />
    <path
       style="fill:#cccccc;stroke:none;display:inline"
       d="m 1111.4915,466.67851 c 1.8649,-24.88752 61.7578,-34.72964 87.8794,-43.9397 3.6303,-45.79987 20.6436,-67.42468 50.4978,-74.76302 48.52,5.33495 46.9329,41.98682 55.7444,72.1397 39.4301,14.91889 91.8782,33.97199 88.5351,56.40018 -5.4281,36.4148 -76.5963,36.92179 -69.5165,40.66065 0.9859,0.52059 73.7429,62.90117 65.5816,117.39107 -25.1403,8.10444 -64.7652,9.60174 -99.684,1.96739 -12.6634,-19.74409 -28.9025,-56.12694 -37.3815,-56.40018 -11.7541,0.89317 -20.1157,32.3175 -30.1676,48.53042 -19.9667,10.16989 -104.1477,13.7938 -112.1445,0.65574 8.156,-58.83638 74.0934,-111.84733 62.3025,-117.39107 -37.306,-17.54037 -64.1717,-11.5528 -61.6467,-45.25118 z"
       id="path3777"
       inkscape:connector-curvature="0"
       sodipodi:nodetypes="scccsscccccss" />
    <rect
       style="fill:#999999;fill-opacity:1;stroke:#b3b3b3;stroke-width:0.70866144;stroke-linecap:square;stroke-linejoin:round;stroke-miterlimit:4;stroke-opacity:1;stroke-dasharray:none;stroke-dashoffset:0;display:inline"
       id="rect3034-3-4"
       width="765"
       height="990"
       x="1651.7716"
       y="-0.35433236" />
    <path
       style="fill:#1a1a1a;fill-opacity:1;stroke:#b3b3b3;stroke-width:0.70866144;stroke-linecap:square;stroke-linejoin:round;stroke-miterlimit:4;stroke-opacity:1;stroke-dasharray:none;stroke-dashoffset:0;display:inline"
       d="m 2022.2611,140.87498 c -189.9386,6.32876 -341.9687,162.30248 -341.9687,353.78125 0,52.23218 11.3156,101.80653 31.625,146.4375 l 61.75,-35.65625 c -14.4852,-34.02922 -22.5,-71.46332 -22.5,-110.78125 0,-152.33103 120.3109,-276.54647 271.0937,-282.84375 l 0,-70.9375 z m 28.3438,0.1875 0,70.96875 c 148.7581,8.46012 266.7812,131.74878 266.7812,282.625 0,53.72298 -14.9818,103.92628 -40.9687,146.71875 l 61.4062,35.46875 c 32.0178,-53.22614 50.4375,-115.54873 50.4375,-182.1875 0,-190.01829 -149.7467,-345.05453 -337.6562,-353.59375 z m -264.5,489.9375 -61.4063,35.4375 c 60.4302,108.66366 176.4071,182.18756 309.5625,182.18756 118.6878,0 223.748,-58.4161 287.9688,-148.0626 l -61.75,-35.65621 c -51.6691,68.53781 -133.7744,112.84381 -226.2188,112.84381 -106.9213,0 -199.9873,-59.2713 -248.1562,-146.75006 z"
       id="path3036-4-3"
       inkscape:connector-curvature="0" />
    <path
       sodipodi:type="arc"
       style="fill:#1a1a1a;fill-opacity:1;stroke:none;display:inline"
       id="path3911-9-1"
       sodipodi:cx="73.741135"
       sodipodi:cy="427.34503"
       sodipodi:rx="237.38585"
       sodipodi:ry="237.38585"
       d="m 311.12698,427.34503 a 237.38585,237.38585 0 1 1 -474.77169,0 237.38585,237.38585 0 1 1 474.77169,0 z"
       transform="matrix(1.0448453,0,0,1.0448453,1957.2237,48.136207)" />
    <path
       id="path3777-6-6-2-9"
       style="fill:#f2f2f2;stroke:none;display:inline"
       d="m 1981.3979,421.19808 c -30.4456,8.1579 -82.7259,23.39699 -83.3231,54.7834 -0.597,31.38642 76.0748,24.72696 68.0163,36.73417 -0.7992,0.70777 -80.7649,68.83695 -73.0238,121.64202 94.551,1.90656 14.236,0 108.7871,1.90656 12.0113,-19.13361 9.9301,-54.34011 32.4174,-60.36555 21.3333,5.71624 20.4061,41.23194 32.4175,60.36555 94.551,-1.90656 14.236,0 108.787,-1.90656 7.7411,-52.80507 -72.2246,-120.93425 -73.0236,-121.64202 55.1709,-9.99789 68.0161,-10.81204 68.0161,-36.73417 0,-25.92212 -53.6441,-46.83096 -83.3231,-54.7834 -8.3576,-29.22056 -6.8523,-68.17099 -52.8739,-68.17099 -46.0216,0 -44.5161,38.95043 -52.8739,68.17099 z"
       inkscape:connector-curvature="0"
       sodipodi:nodetypes="czccccccczccc" />
  </g>
</svg>
