<?xml version="1.0" encoding="UTF-8" standalone="no"?>
<!-- Created with Inkscape (http://www.inkscape.org/) -->

<svg
   xmlns:dc="http://purl.org/dc/elements/1.1/"
   xmlns:cc="http://creativecommons.org/ns#"
   xmlns:rdf="http://www.w3.org/1999/02/22-rdf-syntax-ns#"
   xmlns:svg="http://www.w3.org/2000/svg"
   xmlns="http://www.w3.org/2000/svg"
   xmlns:sodipodi="http://sodipodi.sourceforge.net/DTD/sodipodi-0.dtd"
   xmlns:inkscape="http://www.inkscape.org/namespaces/inkscape"
   width="765"
   height="990"
   id="svg2"
   version="1.1"
   inkscape:version="0.48.4 r9939"
   sodipodi:docname="logo.svg">
  <defs
     id="defs4" />
  <sodipodi:namedview
     id="base"
     pagecolor="#ffffff"
     bordercolor="#666666"
     borderopacity="1.0"
     inkscape:pageopacity="0.0"
     inkscape:pageshadow="2"
     inkscape:zoom="0.31212693"
     inkscape:cx="1784.0668"
     inkscape:cy="208.17558"
     inkscape:document-units="mm"
     inkscape:current-layer="layer3"
     showgrid="false"
     inkscape:window-width="1456"
     inkscape:window-height="1030"
     inkscape:window-x="462"
     inkscape:window-y="0"
     inkscape:window-maximized="0"
     inkscape:snap-bbox="true"
     inkscape:bbox-nodes="true"
     inkscape:snap-bbox-edge-midpoints="false"
     inkscape:bbox-paths="false"
     inkscape:snap-bbox-midpoints="true" />
  <metadata
     id="metadata7">
    <rdf:RDF>
      <cc:Work
         rdf:about="">
        <dc:format>image/svg+xml</dc:format>
        <dc:type
           rdf:resource="http://purl.org/dc/dcmitype/StillImage" />
        <dc:title />
      </cc:Work>
    </rdf:RDF>
  </metadata>
  <g
     inkscape:label="Page"
     inkscape:groupmode="layer"
     id="layer1"
     transform="translate(0,-62.362183)">
    <rect
       style="fill:#999999;fill-opacity:1;stroke:#b3b3b3;stroke-width:0.70866144;stroke-linecap:square;stroke-linejoin:round;stroke-miterlimit:4;stroke-opacity:1;stroke-dasharray:none;stroke-dashoffset:0"
       id="rect3034"
       width="765"
       height="990"
       x="0.354332"
       y="62.007851" />
  </g>
  <g
     inkscape:groupmode="layer"
     id="layer3"
     inkscape:label="Logo"
     style="display:inline">
    <path
       style="fill:#1a1a1a;fill-opacity:1;stroke:#b3b3b3;stroke-width:0.70866144;stroke-linecap:square;stroke-linejoin:round;stroke-miterlimit:4;stroke-opacity:1;stroke-dasharray:none;stroke-dashoffset:0;display:inline"
       d="M 370.84375,140.875 C 180.9051,147.20376 28.875,303.17748 28.875,494.65625 c 0,52.23218 11.315624,101.80653 31.625,146.4375 L 122.25,605.4375 C 107.76479,571.40828 99.75,533.97418 99.75,494.65625 99.75,342.32522 220.06095,218.10978 370.84375,211.8125 l 0,-70.9375 z m 28.34375,0.1875 0,70.96875 c 148.75814,8.46012 266.78125,131.74878 266.78125,282.625 0,53.72298 -14.98182,103.92628 -40.96875,146.71875 l 61.40625,35.46875 c 32.01777,-53.22614 50.4375,-115.54873 50.4375,-182.1875 0,-190.01829 -149.74673,-345.05453 -337.65625,-353.59375 z M 134.6875,631 73.28125,666.4375 c 60.43017,108.66363 176.40701,182.1875 309.5625,182.1875 118.68772,0 223.74798,-58.4161 287.96875,-148.0625 l -61.75,-35.65625 C 557.39342,733.44401 475.28806,777.75 382.84375,777.75 275.92244,777.75 182.85645,718.47878 134.6875,631 z"
       id="path3036"
       inkscape:connector-curvature="0" />
    <path
       style="fill:#1a1a1a;fill-opacity:1;stroke:none"
       d="M 382.84375 246.625 C 245.85974 246.625 134.8125 357.67224 134.8125 494.65625 C 134.8125 631.64026 245.85974 742.6875 382.84375 742.6875 C 519.82776 742.6875 630.875 631.64026 630.875 494.65625 C 630.875 357.67224 519.82776 246.625 382.84375 246.625 z M 380.8125 358.0625 C 381.48391 358.04433 382.15017 358.0625 382.84375 358.0625 C 427.23336 358.0625 425.78254 395.6283 433.84375 423.8125 C 467.61933 414.27981 526.86966 458.61661 524.53125 486.9375 C 519.77785 494.30959 509.30896 499.6716 502.09375 512.34375 C 471.92363 486.29005 437.85961 501.77274 441.75 505.21875 C 442.52066 505.90135 526.52899 578.47392 519.0625 629.40625 L 427.84375 631.25 C 416.25843 612.79497 427.2277 573.03125 382.84375 573.03125 C 338.45998 573.03125 349.42907 612.79497 337.84375 631.25 L 246.65625 629.40625 C 239.18975 578.47392 323.19793 505.90135 323.96875 505.21875 C 327.85914 501.77274 293.76387 486.29005 263.59375 512.34375 C 256.3787 499.6716 245.94072 494.30959 241.1875 486.9375 C 238.84891 458.61661 298.06834 414.27981 331.84375 423.8125 C 339.77918 396.06868 338.51351 359.2069 380.8125 358.0625 z "
       id="path3911" />
    <rect
       style="fill:#999999;fill-opacity:1;stroke:#b3b3b3;stroke-width:0.70866144;stroke-linecap:square;stroke-linejoin:round;stroke-miterlimit:4;stroke-opacity:1;stroke-dasharray:none;stroke-dashoffset:0;display:inline"
       id="rect3034-3-4"
       width="765"
       height="990"
       x="1651.7716"
       y="-0.35433236" />
    <path
       style="fill:#1a1a1a;fill-opacity:1;stroke:#b3b3b3;stroke-width:0.70866144;stroke-linecap:square;stroke-linejoin:round;stroke-miterlimit:4;stroke-opacity:1;stroke-dasharray:none;stroke-dashoffset:0;display:inline"
       d="m 2022.2611,140.87498 c -189.9386,6.32876 -341.9687,162.30248 -341.9687,353.78125 0,52.23218 11.3156,101.80653 31.625,146.4375 l 61.75,-35.65625 c -14.4852,-34.02922 -22.5,-71.46332 -22.5,-110.78125 0,-152.33103 120.3109,-276.54647 271.0937,-282.84375 l 0,-70.9375 z m 28.3438,0.1875 0,70.96875 c 148.7581,8.46012 266.7812,131.74878 266.7812,282.625 0,53.72298 -14.9818,103.92628 -40.9687,146.71875 l 61.4062,35.46875 c 32.0178,-53.22614 50.4375,-115.54873 50.4375,-182.1875 0,-190.01829 -149.7467,-345.05453 -337.6562,-353.59375 z m -264.5,489.9375 -61.4063,35.4375 c 60.4302,108.66366 176.4071,182.18756 309.5625,182.18756 118.6878,0 223.748,-58.4161 287.9688,-148.0626 l -61.75,-35.65621 c -51.6691,68.53781 -133.7744,112.84381 -226.2188,112.84381 -106.9213,0 -199.9873,-59.2713 -248.1562,-146.75006 z"
       id="path3036-4-3"
       inkscape:connector-curvature="0" />
    <path
       style="fill:#1a1a1a;fill-opacity:1;stroke:none;display:inline"
       d="M 2034.2812 246.625 C 1897.2972 246.625 1786.25 357.67224 1786.25 494.65625 C 1786.25 631.64026 1897.2972 742.6875 2034.2812 742.6875 C 2171.2653 742.6875 2282.3125 631.64026 2282.3125 494.65625 C 2282.3125 357.67224 2171.2653 246.625 2034.2812 246.625 z M 2034.2812 353.03125 C 2080.3029 353.03125 2078.7987 391.96694 2087.1562 421.1875 C 2116.8352 429.13994 2170.4688 450.04663 2170.4688 475.96875 C 2170.4688 501.89088 2157.6084 502.72086 2102.4375 512.71875 C 2103.2365 513.42652 2183.2099 581.53868 2175.4688 634.34375 C 2080.9178 636.25031 2161.2385 634.34344 2066.6875 636.25 C 2054.6761 617.11639 2055.6145 581.62249 2034.2812 575.90625 C 2011.7939 581.93169 2013.855 617.11639 2001.8438 636.25 C 1907.2927 634.34344 1987.6135 636.25031 1893.0625 634.34375 C 1885.3214 581.53868 1965.2946 513.42652 1966.0938 512.71875 C 1974.1522 500.71154 1897.4655 507.35517 1898.0625 475.96875 C 1898.6597 444.58234 1950.9606 429.3454 1981.4062 421.1875 C 1989.7641 391.96694 1988.2596 353.03125 2034.2812 353.03125 z "
       id="path3911-9-1" />
  </g>
</svg>
