<?xml version="1.0" encoding="UTF-8" standalone="no"?>
<!-- Created with Inkscape (http://www.inkscape.org/) -->

<svg
   xmlns:dc="http://purl.org/dc/elements/1.1/"
   xmlns:cc="http://creativecommons.org/ns#"
   xmlns:rdf="http://www.w3.org/1999/02/22-rdf-syntax-ns#"
   xmlns:svg="http://www.w3.org/2000/svg"
   xmlns="http://www.w3.org/2000/svg"
   version="1.1"
   width="100%"
   height="100%"
   id="svg2993">
  <metadata
     id="metadata5961">
    <rdf:RDF>
      <cc:Work
         rdf:about="">
        <dc:format>image/svg+xml</dc:format>
        <dc:type
           rdf:resource="http://purl.org/dc/dcmitype/StillImage" />
        <dc:title></dc:title>
      </cc:Work>
    </rdf:RDF>
  </metadata>
  <defs
     id="defs5959" />
  <path
     d="M 383.99996,0 C 171.9227,0 0,171.9227 0,383.99996 0,393.60085 0.37420224,403.1092 1.0666666,412.53329 L 77.166659,399.09996 C 76.924216,394.09409 76.799992,389.06592 76.799992,383.99996 76.799992,214.33811 214.33811,76.799992 383.99996,76.799992 407.44359,76.799992 430.26113,79.425986 452.19996,84.399992 L 478.63329,11.766665 C 448.36148,4.094495 416.6572,0 383.99996,0 z"
     id="circle3108" />
  <path
     d="M 550.79994,38.03333 524.36661,110.66666 C 623.44183,161.64507 691.19993,264.90876 691.19993,383.99996 691.19993,464.63348 660.11599,537.99418 609.29994,592.79994 L 658.99993,651.99994 C 726.4398,582.80629 767.99992,488.25482 767.99992,383.99996 767.99992,231.70174 679.32356,100.11651 550.79994,38.03333 z"
     id="path6046" />
  <path
     d="M 90.399991,474.73329 14.299999,488.16661 C 59.698777,649.63214 208.0229,767.99992 383.99996,767.99992 464.1817,767.99992 538.61907,743.42897 600.19994,701.39993 L 550.49994,642.1666 C 502.52254,673.17389 445.37541,691.19993 383.99996,691.19993 245.91727,691.19993 129.09782,600.11114 90.399991,474.73329 z"
     id="path6048" />
  <circle
     cx="4"
     cy="4"
     r="2.5999999"
     transform="scale(96,96)"
     id="circle5954" />
  <path
     d="M 294.02395,496.79026 C 257.86565,496.37332 251.61316,495.924 250.75232,493.6807 248.93807,488.95286 253.85908,465.05061 258.9727,453.75286 269.17028,431.22283 293.53524,397.68297 313.50411,378.68703 317.12701,375.24064 320.09121,371.59646 320.09121,370.58884 320.09121,368.57527 307.77304,364.27536 297.07281,362.55378 278.64155,359.58836 261.57838,351.3622 257.93567,343.68576 256.48531,340.62938 255.29867,336.3769 255.29867,334.23579 255.29867,327.48977 262.10705,315.9262 270.3608,308.65383 279.40788,300.68245 303.66183,288.69135 320.09121,284.06722 326.18682,282.35158 331.87353,280.33982 332.72838,279.59663 333.58319,278.85344 335.2463,273.804 336.42415,268.37565 343.97532,233.57441 349.62382,222.28167 362.89624,215.45146 369.14916,212.23359 373.38442,211.42716 384.0312,211.42716 400.27485,211.42716 410.58079,215.96604 417.57447,226.2001 421.70985,232.25156 428.77865,254.29792 432.25559,271.98802 433.75214,279.60223 433.10032,279.1596 455.28911,287.62953 483.82588,298.52265 503.24573,312.28144 509.91188,326.32929 514.60178,336.21252 513.18426,346.63979 506.09583,354.40065 501.45499,359.48171 486.87017,365.19779 472.69468,367.49121 461.77239,369.25828 449.67628,372.45018 449.67628,373.56527 449.67628,374.13051 453.19508,378.01368 457.49582,382.19453 483.43249,407.40814 508.06855,444.92727 514.45568,468.9408 516.34753,476.05356 517.38264,494.08805 515.97244,495.3668 515.61433,495.69148 492.58255,496.29633 464.79067,496.71086 L 414.26001,497.46456 411.61597,491.37218 C 410.16176,488.02138 407.1373,478.70197 404.89494,470.66239 399.97556,453.02479 394.15272,441.97195 387.94575,438.48967 383.68829,436.10111 382.96965,436.17382 378.56788,439.43832 372.0763,444.25271 366.91917,453.87636 363.65739,467.26267 362.1568,473.42095 359.3198,482.8714 357.35291,488.26367 L 353.77675,498.06781 345.03305,497.67272 C 340.224,497.45543 317.26992,497.05831 294.02395,496.79026 z"
     id="meeple"
     style="fill:#ffffff" />
</svg>
