<?xml version="1.0" encoding="UTF-8" standalone="no"?>
<!-- Created with Inkscape (http://www.inkscape.org/) -->

<svg
   xmlns:dc="http://purl.org/dc/elements/1.1/"
   xmlns:cc="http://creativecommons.org/ns#"
   xmlns:rdf="http://www.w3.org/1999/02/22-rdf-syntax-ns#"
   xmlns:svg="http://www.w3.org/2000/svg"
   xmlns="http://www.w3.org/2000/svg"
   xmlns:sodipodi="http://sodipodi.sourceforge.net/DTD/sodipodi-0.dtd"
   xmlns:inkscape="http://www.inkscape.org/namespaces/inkscape"
   width="765"
   height="765"
   id="svg2"
   version="1.1"
   inkscape:version="0.48.4 r9939"
   sodipodi:docname="logo.svg">
  <defs
     id="defs4" />
  <sodipodi:namedview
     id="base"
     pagecolor="#ffffff"
     bordercolor="#666666"
     borderopacity="1.0"
     inkscape:pageopacity="0.0"
     inkscape:pageshadow="2"
     inkscape:zoom="0.22070707"
     inkscape:cx="1724.2471"
     inkscape:cy="734.31761"
     inkscape:document-units="mm"
     inkscape:current-layer="layer3"
     showgrid="false"
     inkscape:window-width="1456"
     inkscape:window-height="1030"
     inkscape:window-x="462"
     inkscape:window-y="0"
     inkscape:window-maximized="0"
     inkscape:snap-bbox="true"
     inkscape:bbox-nodes="true"
     inkscape:snap-bbox-edge-midpoints="false"
     inkscape:bbox-paths="false"
     inkscape:snap-bbox-midpoints="true"
     units="mm" />
  <metadata
     id="metadata7">
    <rdf:RDF>
      <cc:Work
         rdf:about="">
        <dc:format>image/svg+xml</dc:format>
        <dc:type
           rdf:resource="http://purl.org/dc/dcmitype/StillImage" />
        <dc:title />
      </cc:Work>
    </rdf:RDF>
  </metadata>
  <g
     inkscape:label="Page"
     inkscape:groupmode="layer"
     id="layer1"
     transform="translate(0,-287.3622)"
     style="display:inline">
    <rect
       style="fill:#999999;fill-opacity:1;stroke:#b3b3b3;stroke-width:0.70866144;stroke-linecap:square;stroke-linejoin:round;stroke-miterlimit:4;stroke-opacity:1;stroke-dasharray:none;stroke-dashoffset:0"
       id="rect3034"
       width="765"
       height="765"
       x="0.354332"
       y="287.00784" />
  </g>
  <g
     inkscape:groupmode="layer"
     id="layer3"
     inkscape:label="Logo"
     style="display:inline"
     transform="translate(0,-225.00002)">
    <path
       style="fill:#1a1a1a;fill-opacity:1;stroke:#b3b3b3;stroke-width:0.70866144;stroke-linecap:square;stroke-linejoin:round;stroke-miterlimit:4;stroke-opacity:1;stroke-dasharray:none;stroke-dashoffset:0;display:inline"
       d="M 370.85433,253.36441 C 180.91568,259.69317 28.885582,415.66689 28.885582,607.14566 c 0,52.23218 11.315624,101.80653 31.625,146.4375 L 122.26058,717.92691 C 107.77537,683.89769 99.760582,646.46359 99.760582,607.14566 c 0,-152.33103 120.310948,-276.54647 271.093748,-282.84375 l 0,-70.9375 z m 28.34375,0.1875 0,70.96875 c 148.75814,8.46012 266.78125,131.74878 266.78125,282.625 0,53.72298 -14.98182,103.92628 -40.96875,146.71875 l 61.40625,35.46875 c 32.01777,-53.22614 50.4375,-115.54873 50.4375,-182.1875 0,-190.01829 -149.74673,-345.05453 -337.65625,-353.59375 z m -264.5,489.9375 -61.406248,35.4375 c 60.430168,108.66363 176.407008,182.1875 309.562498,182.1875 118.68772,0 223.74798,-58.4161 287.96875,-148.0625 l -61.75,-35.65625 C 557.404,845.93342 475.29864,890.23941 382.85433,890.23941 c -106.92131,0 -199.9873,-59.27122 -248.15625,-146.75 z"
       id="path3036"
       inkscape:connector-curvature="0" />
    <path
       style="fill:#1a1a1a;fill-opacity:1;stroke:none"
       d="m 382.85433,359.11441 c -136.98401,0 -248.03125,111.04724 -248.03125,248.03125 0,136.98401 111.04724,248.03125 248.03125,248.03125 136.98401,0 248.03125,-111.04724 248.03125,-248.03125 0,-136.98401 -111.04724,-248.03125 -248.03125,-248.03125 z m -2.03125,111.4375 c 0.67141,-0.0182 1.33767,0 2.03125,0 44.38961,0 42.93879,37.5658 51,65.75 33.77558,-9.53269 93.02591,34.80411 90.6875,63.125 -4.7534,7.37209 -15.22229,12.7341 -22.4375,25.40625 -30.17012,-26.0537 -64.23414,-10.57101 -60.34375,-7.125 0.77066,0.6826 84.77899,73.25517 77.3125,124.1875 l -91.21875,1.84375 c -11.58532,-18.45503 -0.61605,-58.21875 -45,-58.21875 -44.38377,0 -33.41468,39.76372 -45,58.21875 l -91.1875,-1.84375 c -7.4665,-50.93233 76.54168,-123.5049 77.3125,-124.1875 3.89039,-3.44601 -30.20488,-18.9287 -60.375,7.125 -7.21505,-12.67215 -17.65303,-18.03416 -22.40625,-25.40625 -2.33859,-28.32089 56.88084,-72.65769 90.65625,-63.125 7.93543,-27.74382 6.66976,-64.6056 48.96875,-65.75 z"
       id="path3911"
       inkscape:connector-curvature="0" />
    <rect
       style="fill:#999999;fill-opacity:1;stroke:#b3b3b3;stroke-width:0.70866144;stroke-linecap:square;stroke-linejoin:round;stroke-miterlimit:4;stroke-opacity:1;stroke-dasharray:none;stroke-dashoffset:0;display:inline"
       id="rect3034-3-4"
       width="765"
       height="765"
       x="1651.7716"
       y="224.64566" />
    <path
       style="fill:#1a1a1a;fill-opacity:1;stroke:#b3b3b3;stroke-width:0.70866144;stroke-linecap:square;stroke-linejoin:round;stroke-miterlimit:4;stroke-opacity:1;stroke-dasharray:none;stroke-dashoffset:0;display:inline"
       d="m 2022.2515,253.36439 c -189.9386,6.32876 -341.9687,162.30248 -341.9687,353.78125 0,52.23218 11.3156,101.80653 31.625,146.4375 l 61.75,-35.65625 c -14.4852,-34.02922 -22.5,-71.46332 -22.5,-110.78125 0,-152.33103 120.3109,-276.54647 271.0937,-282.84375 l 0,-70.9375 z m 28.3438,0.1875 0,70.96875 c 148.7581,8.46012 266.7812,131.74878 266.7812,282.625 0,53.72298 -14.9818,103.92628 -40.9687,146.71875 l 61.4062,35.46875 c 32.0178,-53.22614 50.4375,-115.54873 50.4375,-182.1875 0,-190.01829 -149.7467,-345.05453 -337.6562,-353.59375 z m -264.5,489.9375 -61.4063,35.4375 c 60.4302,108.66366 176.4071,182.18756 309.5625,182.18756 118.6878,0 223.748,-58.4161 287.9688,-148.0626 l -61.75,-35.65621 c -51.6691,68.53781 -133.7744,112.84381 -226.2188,112.84381 -106.9213,0 -199.9873,-59.2713 -248.1562,-146.75006 z"
       id="path3036-4-3"
       inkscape:connector-curvature="0" />
    <path
       style="fill:#1a1a1a;fill-opacity:1;stroke:none;display:inline"
       d="m 2034.2716,359.11441 c -136.984,0 -248.0312,111.04724 -248.0312,248.03125 0,136.98401 111.0472,248.03125 248.0312,248.03125 136.9841,0 248.0313,-111.04724 248.0313,-248.03125 0,-136.98401 -111.0472,-248.03125 -248.0313,-248.03125 z m 0,106.40625 c 46.0217,0 44.5175,38.93569 52.875,68.15625 29.679,7.95244 83.3126,28.85913 83.3126,54.78125 0,25.92213 -12.8604,26.75211 -68.0313,36.75 0.799,0.70777 80.7724,68.81993 73.0313,121.625 -94.551,1.90656 -14.2303,-3.1e-4 -108.7813,1.90625 -12.0114,-19.13361 -11.073,-54.62751 -32.4063,-60.34375 -22.4873,6.02544 -20.4262,41.21014 -32.4374,60.34375 -94.5511,-1.90656 -14.2303,3.1e-4 -108.7813,-1.90625 -7.7411,-52.80507 72.2321,-120.91723 73.0313,-121.625 8.0584,-12.00721 -68.6283,-5.36358 -68.0313,-36.75 0.5972,-31.38641 52.8981,-46.62335 83.3437,-54.78125 8.3579,-29.22056 6.8534,-68.15625 52.875,-68.15625 z"
       id="path3911-9-1"
       inkscape:connector-curvature="0" />
  </g>
</svg>
