<?xml version="1.0" encoding="UTF-8" standalone="no"?>
<!-- Created with Inkscape (http://www.inkscape.org/) -->

<svg
   xmlns:dc="http://purl.org/dc/elements/1.1/"
   xmlns:cc="http://creativecommons.org/ns#"
   xmlns:rdf="http://www.w3.org/1999/02/22-rdf-syntax-ns#"
   xmlns:svg="http://www.w3.org/2000/svg"
   xmlns="http://www.w3.org/2000/svg"
   xmlns:sodipodi="http://sodipodi.sourceforge.net/DTD/sodipodi-0.dtd"
   xmlns:inkscape="http://www.inkscape.org/namespaces/inkscape"
   width="765"
   height="990"
   id="svg2"
   version="1.1"
   inkscape:version="0.48.4 r9939"
   sodipodi:docname="meeple.svg">
  <defs
     id="defs4" />
  <sodipodi:namedview
     id="base"
     pagecolor="#ffffff"
     bordercolor="#666666"
     borderopacity="1.0"
     inkscape:pageopacity="0.0"
     inkscape:pageshadow="2"
     inkscape:zoom="1.4"
     inkscape:cx="394.11202"
     inkscape:cy="517.00621"
     inkscape:document-units="mm"
     inkscape:current-layer="layer1"
     showgrid="false"
     inkscape:window-width="1456"
     inkscape:window-height="1030"
     inkscape:window-x="462"
     inkscape:window-y="0"
     inkscape:window-maximized="0"
     inkscape:snap-bbox="true"
     inkscape:bbox-nodes="true"
     inkscape:snap-bbox-edge-midpoints="false"
     inkscape:bbox-paths="false"
     inkscape:snap-bbox-midpoints="true"
     inkscape:object-nodes="true" />
  <metadata
     id="metadata7">
    <rdf:RDF>
      <cc:Work
         rdf:about="">
        <dc:format>image/svg+xml</dc:format>
        <dc:type
           rdf:resource="http://purl.org/dc/dcmitype/StillImage" />
        <dc:title />
      </cc:Work>
    </rdf:RDF>
  </metadata>
  <g
     inkscape:label="Page"
     inkscape:groupmode="layer"
     id="layer1"
     transform="translate(0,-62.362183)">
    <rect
       style="fill:#999999;fill-opacity:1;stroke:#b3b3b3;stroke-width:0.70866144;stroke-linecap:square;stroke-linejoin:round;stroke-miterlimit:4;stroke-opacity:1;stroke-dasharray:none;stroke-dashoffset:0"
       id="rect3034"
       width="765"
       height="990"
       x="0.354332"
       y="62.007851" />
  </g>
  <g
     inkscape:groupmode="layer"
     id="layer3"
     inkscape:label="Meeple"
     style="display:inline">
    <path
       id="path3777-6-6-2"
       style="fill:none;stroke:#aa0000;stroke-width:1px;stroke-linecap:butt;stroke-linejoin:miter;stroke-opacity:1;display:inline"
       d="M 82.852177,575.21707 C 63.17401,569.66314 28.666071,595.5026 30.028502,612.0028 c 2.769386,4.29509 8.857816,7.41345 13.061478,14.79648 17.57761,-15.1793 37.427017,-6.16121 35.160447,-4.15358 -0.44904,0.39773 -49.386084,42.68317 -45.035971,72.35717 53.133331,1.0714 0,0 53.133331,1.0714 6.74979,-10.7522 0.358351,-33.92264 26.217093,-33.92264 25.85875,0 19.4673,23.17044 26.2171,33.92264 53.13333,-1.0714 0,0 53.13333,-1.0714 4.35011,-29.674 -44.58694,-71.95944 -45.03597,-72.35717 -2.26657,-2.00763 17.58284,-11.02572 35.16045,4.15358 4.20366,-7.38303 10.29209,-10.50139 13.06147,-14.79648 1.36243,-16.5002 -33.14551,-42.33966 -52.82368,-36.78573 -4.69665,-16.4206 -3.85067,-38.30894 -29.7127,-38.30894 -25.862023,0 -25.016043,21.88834 -29.712703,38.30894 z"
       inkscape:connector-curvature="0"
       sodipodi:nodetypes="cccscccccsccccc" />
    <path
       id="path3777-6-6-2-9"
       style="fill:none;stroke:#008000;stroke-width:1px;stroke-linecap:butt;stroke-linejoin:miter;stroke-opacity:1;display:inline"
       d="m 246.07472,575.21707 c -17.10905,4.58436 -46.48812,13.14802 -46.82368,30.78573 -0.33555,17.63771 42.75046,13.8954 38.22193,20.6429 -0.44904,0.39773 -45.38609,38.68317 -41.03597,68.35717 53.13333,1.0714 8,0 61.13333,1.0714 6.74979,-10.7522 5.58028,-30.53662 18.21709,-33.92264 11.98833,3.21226 11.4673,23.17044 18.2171,33.92264 53.13333,-1.0714 8,0 61.13333,-1.0714 4.35011,-29.674 -40.58694,-67.95944 -41.03597,-68.35717 31.00349,-5.61835 38.22192,-6.07587 38.22192,-20.6429 0,-14.56703 -30.14552,-26.31683 -46.82368,-30.78573 -4.69665,-16.4206 -3.85067,-38.30894 -29.7127,-38.30894 -25.86202,0 -25.01604,21.88834 -29.7127,38.30894 z"
       inkscape:connector-curvature="0"
       sodipodi:nodetypes="czccccccczccc" />
  </g>
</svg>
